<svg width="94" height="61" viewBox="0 0 94 61" fill="none" xmlns="http://www.w3.org/2000/svg">
<g clip-path="url(#clip0_103_5550)">
<path d="M0 0H94V61H0V0Z" fill="#012169"/>
<path d="M94 0V7.625L59.1172 30.5L94 52.7793V61H81.6992L46.6328 38.6016L12.4844 61H0V52.8984L34.1484 30.6191L0 8.81641V0H11.3828L46.6328 22.3984L80.7812 0H94Z" fill="white"/>
<path d="M33.7812 38.6016L35.8008 42.6523L7.71094 61H0V60.6426L33.7812 38.6016ZM56.5469 37.1719L66.4609 38.125L94 55.6387V61L56.5469 37.1719ZM94 0L58.75 23.3516L58.0156 18.1094L85.5547 0H94ZM0 0.119141L35.4336 22.6367L24.6016 21.6836L0 5.83789V0.119141Z" fill="#C8102E"/>
<path d="M32.3125 0V61H61.6875V0H32.3125ZM0 20.9688V40.0312H94V20.9688H0Z" fill="white"/>
<path d="M0 24.7812V36.2188H94V24.7812H0ZM38.1875 0V61H55.8125V0H38.1875Z" fill="#C8102E"/>
</g>
<defs>
<clipPath id="clip0_103_5550">
<rect width="94" height="61" fill="white"/>
</clipPath>
</defs>
</svg>
